<svg xmlns="http://www.w3.org/2000/svg" width="128" height="128" viewBox="0 0 128 128">
  <defs>
    <linearGradient id="icon-a" x1="6.169%" x2="71.088%" y1="50%" y2="50%">
      <stop offset="0%" stop-color="#8566F6"/>
      <stop offset="100%" stop-color="#5E5EEE"/>
    </linearGradient>
  </defs>
  <g fill="none" transform="translate(8)">
    <path fill="url(#icon-a)" d="M58.4505846,0.678068099 L109.333199,30.1474834 C110.894225,31.0515743 111.855856,32.7224031 111.855856,34.5305845 L111.855856,93.4694155 C111.855856,95.2775969 110.894225,96.9484258 109.333199,97.8525166 L58.4505846,127.321932 C56.8895591,128.226023 54.9662968,128.226023 53.4052714,127.321932 L2.52265658,97.8525166 C0.961631266,96.9484258 0,95.2775969 0,93.4694155 L0,34.5305845 C0,32.7224031 0.961631266,31.0515743 2.52265658,30.1474834 L53.4052714,0.678068099 C54.9662968,-0.2260227 56.8895591,-0.2260227 58.4505846,0.678068099 Z"/>
    <path fill="#FFF" d="M63.8700927,22.5869872 L93.1822819,39.4933737 C94.7474984,40.3961434 95.7117117,42.0645308 95.7117117,43.8700701 L95.7117117,83.5184386 C95.7117117,85.3239779 94.7474984,86.9923653 93.1822819,87.8951351 L58.8112331,107.719319 C57.2460164,108.622089 55.3175902,108.622089 53.7523735,107.719319 L24.4401843,90.8129326 C22.0205692,89.4173716 21.1915478,86.3265319 22.5885132,83.9093493 C23.032521,83.1410787 23.6711405,82.5031011 24.4401843,82.0595397 L53.7523735,65.1531533 C55.3175902,64.2503835 56.2818033,62.5819961 56.2818033,60.7764568 L56.2818033,26.9636836 C56.2818033,24.1725615 58.5467319,21.9099099 61.3406629,21.9099099 C62.2286782,21.9099099 63.1010489,22.1434259 63.8700927,22.5869872 Z"/>
  </g>
</svg>
